:FULLY-SPECIFIED
:FORCE-ALL-JOINTS-BE-3DOF
:DEGREES
272
root 8.32637 16.1822 -25.2008 21.0985 69.4874 18.6688
lfemur -25.0102 7.56722 -22.8414
ltibia 41.3756 -0 0
lfoot -6.66506 -21.408 -0.0957333
ltoes 63.5621 -0 0
rfemur -52.893 -5.07214 13.0413
rtibia 82.629 -0 0
rfoot 8.50966 -0.840539 -0.120784
rtoes -1.0292 0 0
lowerback 6.42031 -4.48132 -2.43051
upperback 1.47625 -6.13522 -1.75249
thorax -2.00615 -3.02438 0.0475762
lowerneck -5.35313 -11.1092 -4.60915
upperneck 0.694349 -14.6636 5.20322
head 1.91261 -7.24568 1.86101
lclavicle -2.57426e-014 3.57812e-015 0
lhumerus -45.1302 -35.3845 107.626
lradius 59.1975 -0 0
lwrist 20.327 0 0
lhand 18.9295 14.8793 0.0190334
lfingers 7.12502 -0 0
lthumb 43.5284 38.8684 -0.00247033
rclavicle -2.57426e-014 3.57812e-015 0
rhumerus -53.7738 2.32534 -94.9504
rradius 44.3259 -0 0
rwrist 25.217 0 0
rhand -24.475 3.8485 0.0490372
rfingers 7.12502 -0 0
rthumb 2.02322 -26.2123 -0.0213334
273
root 8.38245 16.1633 -25.1638 22.0805 70.1915 20.0782
lfemur -24.4859 7.22181 -22.975
ltibia 41.5801 -0 0
lfoot -6.45704 -22.0133 -0.0472794
ltoes 63.5827 -0 0
rfemur -53.9424 -5.28948 13.805
rtibia 82.729 -0 0
rfoot 7.87632 -0.614649 -0.0610407
rtoes 0.155094 -0 0
lowerback 6.59429 -4.55215 -2.56473
upperback 1.61029 -6.23646 -1.95459
thorax -1.96677 -3.07747 -0.0740042
lowerneck -5.159 -11.2169 -4.72692
upperneck 0.669328 -14.8154 5.42217
head 1.90497 -7.32046 1.94913
lclavicle -2.57426e-014 3.57812e-015 0
lhumerus -44.8462 -35.5135 107.11
lradius 59.1462 -0 0
lwrist 20.3217 0 0
lhand 19.3837 14.9988 0.00862731
lfingers 7.12502 -0 0
lthumb 43.9567 38.8667 -0.00120179
rclavicle -2.57426e-014 3.57812e-015 0
rhumerus -54.5042 3.12109 -96.0931
rradius 45.248 -0 0
rwrist 24.2058 0 0
rhand -24.5677 3.69754 0.00629034
rfingers 7.12502 -0 0
rthumb 1.93025 -26.2962 -0.0118941
274
root 8.4395 16.1423 -25.1255 23.0313 70.8426 21.4534
lfemur -23.9806 6.96001 -23.0939
ltibia 41.8329 0 0
lfoot -6.34822 -22.6063 0
ltoes 63.6522 0 0
rfemur -54.677 -5.40979 14.4999
rtibia 82.6074 0 0
rfoot 7.37167 -0.590177 0
rtoes 1.37596 0 0
lowerback 6.738 -4.61229 -2.71573
upperback 1.7394 -6.3233 -2.13178
thorax -1.91208 -3.12316 -0.164029
lowerneck -4.98008 -11.3206 -4.84023
upperneck 0.669695 -14.9622 5.62359
head 1.90668 -7.39287 2.03008
lclavicle 3.07285e-014 1.19908e-014 0
lhumerus -44.5846 -35.6402 106.647
lradius 59.1166 0 0
lwrist 20.3141 0 0
lhand 19.7519 15.0959 0
lfingers 7.12502 0 0
lthumb 44.3039 38.8645 0
rclavicle 3.07285e-014 1.19908e-014 0
rhumerus -55.2369 3.9752 -97.0583
rradius 46.1277 0 0
rwrist 23.439 0 0
rhand -24.7442 3.49961 0
rfingers 7.12502 0 0
rthumb 1.75858 -746.473 0
275
root 8.49887 16.1171 -25.0849 23.9706 71.4641 22.8354
lfemur -23.4778 6.77714 -23.1859
ltibia 42.1675 -0 0
lfoot -6.33108 -23.2136 0.0472233
ltoes 63.708 -0 0
rfemur -55.0882 -5.44098 15.1529
rtibia 82.2075 -0 0
rfoot 6.92942 -0.794611 0.0624227
rtoes 2.81979 -0 0
lowerback 6.85155 -4.66662 -2.88957
upperback 1.86836 -6.40212 -2.29024
thorax -1.83663 -3.16477 -0.225453
lowerneck -4.81033 -11.419 -4.95804
upperneck 0.706652 -15.1027 5.81221
head 1.92195 -7.46217 2.10698
lclavicle 3.07285e-014 1.19908e-014 0
lhumerus -44.3308 -35.7629 106.216
lradius 59.1106 -0 0
lwrist 20.3036 0 0
lhand 20.0552 15.1829 -0.00720933
lfingers 7.12502 -0 0
lthumb 44.5897 38.8684 0.000912845
rclavicle 3.07285e-014 1.19908e-014 0
rhumerus -56.0506 4.9261 -97.9131
rradius 47.0729 -0 0
rwrist 22.8698 0 0
rhand -24.9838 3.22613 0.0178815
rfingers 7.12502 -0 0
rthumb 1.5272 -26.752 0.0167333
276
root 8.5614 16.0859 -25.0413 24.9329 72.076 24.2762
lfemur -22.9615 6.66106 -23.2404
ltibia 42.6079 -0 0
lfoot -6.38793 -23.8574 0.0956813
ltoes 63.6826 -0 0
rfemur -55.2089 -5.40265 15.799
rtibia 81.5043 -0 0
rfoot 6.4719 -1.22459 0.126089
rtoes 4.6467 -0 0
lowerback 6.9389 -4.72033 -3.08923
upperback 2.00215 -6.47969 -2.43858
thorax -1.7375 -3.20586 -0.264973
lowerneck -4.64299 -11.5106 -5.0879
upperneck 0.786096 -15.2355 5.99437
head 1.95308 -7.52751 2.18335
lclavicle 3.07285e-014 1.19908e-014 0
lhumerus -44.0694 -35.8811 105.795
lradius 59.1269 -0 0
lwrist 20.2898 0 0
lhand 20.3223 15.2732 -0.0138739
lfingers 7.12502 -0 0
lthumb 44.8411 38.8839 0.00129906
rclavicle 3.07285e-014 1.19908e-014 0
rhumerus -57.0142 5.99717 -98.7404
rradius 48.1896 -0 0
rwrist 22.4184 0 0
rhand -25.2508 2.85481 0.0424415
rfingers 7.12502 -0 0
rthumb 1.26937 -27.1308 0.0394292
277
root 8.62649 16.0493 -24.995 25.9174 72.6728 25.7696
lfemur -22.4347 6.60718 -23.2595
ltibia 43.1422 -0 0
lfoot -6.5132 -24.5306 0.143676
ltoes 63.5834 -0 0
rfemur -55.0663 -5.30797 16.4371
rtibia 80.5284 -0 0
rfoot 6.00231 -1.85483 0.187649
rtoes 6.80809 -0 0
lowerback 7.00258 -4.77288 -3.31161
upperback 2.13999 -6.55528 -2.57732
thorax -1.61735 -3.24609 -0.284605
lowerneck -4.47863 -11.5954 -5.22731
upperneck 0.902743 -15.3608 6.17023
head 1.99811 -7.58898 2.25895
lclavicle 3.07285e-014 1.19908e-014 0
lhumerus -43.8029 -35.9965 105.383
lradius 59.1631 -0 0
lwrist 20.2728 0 0
lhand 20.5547 15.3653 -0.0199635
lfingers 7.12502 -0 0
lthumb 45.0598 38.9096 0.00116497
rclavicle 3.07285e-014 1.19908e-014 0
rhumerus -58.1081 7.17306 -99.5439
rradius 49.4582 -0 0
rwrist 22.0704 0 0
rhand -25.5387 2.39453 0.0714273
rfingers 7.12502 -0 0
rthumb 0.99137 -27.6001 0.065978
278
root 8.69357 16.0082 -24.9465 26.9213 73.2494 27.3069
lfemur -21.9005 6.61092 -23.2454
ltibia 43.7586 -0 0
lfoot -6.70128 -25.2257 0.189557
ltoes 63.4175 -0 0
rfemur -54.688 -5.16939 17.0669
rtibia 79.3104 -0 0
rfoot 5.52392 -2.65999 0.244104
rtoes 9.25539 -0 0
lowerback 7.04515 -4.82377 -3.5536
upperback 2.2811 -6.62816 -2.70696
thorax -1.47883 -3.2851 -0.286359
lowerneck -4.31782 -11.6737 -5.37374
upperneck 1.0513 -15.4788 6.33998
head 2.05508 -7.64665 2.33353
lclavicle 3.07285e-014 1.19908e-014 0
lhumerus -43.5334 -36.1108 104.982
lradius 59.2171 -0 0
lwrist 20.2528 0 0
lhand 20.7541 15.458 -0.0254376
lfingers 7.12502 -0 0
lthumb 45.2472 38.9436 0.000546684
rclavicle 3.07285e-014 1.19908e-014 0
rhumerus -59.3121 8.4392 -100.327
rradius 50.8596 -0 0
rwrist 21.8115 0 0
rhand -25.8409 1.85416 0.102669
rfingers 7.12502 -0 0
rthumb 0.699497 -28.1506 0.0943538
279
root 8.76205 15.9632 -24.8958 27.939 73.8006 28.8768
lfemur -21.362 6.66773 -23.2002
ltibia 44.4452 -0 0
lfoot -6.94652 -25.9354 0.231774
ltoes 63.1922 -0 0
rfemur -54.1019 -4.99862 17.6886
rtibia 77.8807 -0 0
rfoot 5.04013 -3.6147 0.292877
rtoes 11.94 -0 0
lowerback 7.06913 -4.8725 -3.81209
upperback 2.42471 -6.69758 -2.82801
thorax -1.32459 -3.32256 -0.27224
lowerneck -4.16115 -11.7455 -5.52471
upperneck 1.22645 -15.5897 6.50384
head 2.12201 -7.70059 2.40685
lclavicle 3.07285e-014 1.19908e-014 0
lhumerus -43.2635 -36.2255 104.594
lradius 59.2866 -0 0
lwrist 20.2301 0 0
lhand 20.9221 15.5498 -0.0302494
lfingers 7.12502 -0 0
lthumb 45.4049 38.9844 -0.000495785
rclavicle 3.07285e-014 1.19908e-014 0
rhumerus -60.6058 9.78177 -101.092
rradius 52.3745 -0 0
rwrist 21.6273 0 0
rhand -26.151 1.24261 0.134143
rfingers 7.12502 -0 0
rthumb 0.400073 -28.773 0.122677
280
root 8.83133 15.9149 -24.8434 28.9619 74.3216 30.465
lfemur -20.822 6.77311 -23.1262
ltibia 45.19 -0 0
lfoot -7.24323 -26.6525 0.268928
ltoes 62.9147 -0 0
rfemur -53.3361 -4.80666 18.3024
rtibia 76.2699 -0 0
rfoot 4.55447 -4.69354 0.331886
rtoes 14.8133 -0 0
lowerback 7.07705 -4.91856 -4.08398
upperback 2.57004 -6.76283 -2.94098
thorax -1.15727 -3.35814 -0.244243
lowerneck -4.0092 -11.811 -5.6777
upperneck 1.42287 -15.6936 6.66207
head 2.19694 -7.75087 2.47868
lclavicle 3.07285e-014 1.19908e-014 0
lhumerus -42.9952 -36.3423 104.218
lradius 59.3692 -0 0
lwrist 20.2048 0 0
lhand 21.0604 15.6394 -0.0343499
lfingers 7.12502 -0 0
lthumb 45.5346 39.0303 -0.00188394
rclavicle 3.07285e-014 1.19908e-014 0
rhumerus -61.9685 11.1877 -101.839
rradius 53.9834 -0 0
rwrist 21.5035 0 0
rhand -26.4623 0.568823 0.164023
rfingers 7.12502 -0 0
rthumb 0.0994557 -29.458 0.149263
281
root 8.90085 15.864 -24.7896 29.9779 74.8079 32.0539
lfemur -20.2834 6.92259 -23.0256
ltibia 45.9811 -0 0
lfoot -7.5857 -27.3696 0.299811
ltoes 62.5922 -0 0
rfemur -52.4189 -4.60382 18.9084
rtibia 74.5085 -0 0
rfoot 4.0706 -5.8711 0.359591
rtoes 17.8268 -0 0
lowerback 7.07141 -4.96144 -4.36617
upperback 2.71631 -6.82317 -3.04635
thorax -0.979517 -3.39151 -0.204361
lowerneck -3.86259 -11.8703 -5.83021
upperneck 1.63523 -15.7906 6.81496
head 2.27791 -7.79754 2.54879
lclavicle 3.07285e-014 1.19908e-014 0
lhumerus -42.7308 -36.463 103.857
lradius 59.4626 -0 0
lwrist 20.177 0 0
lhand 21.1706 15.7253 -0.0376916
lfingers 7.12502 -0 0
lthumb 45.6376 39.0796 -0.00352582
rclavicle 3.07285e-014 1.19908e-014 0
rhumerus -63.379 12.6446 -102.57
rradius 55.6671 -0 0
rwrist 21.4257 0 0
rhand -26.7683 -0.15825 0.190722
rfingers 7.12502 -0 0
rthumb -0.195954 -30.1963 0.172669
